Coordinates
version=1
nRows=19
nColumns=24
inDegrees=yes

Units are S.I. units (second, meters, Newtons, ...)
Angles are in degrees.

endheader
time	pelvis_tilt	pelvis_list	pelvis_rotation	pelvis_tx	pelvis_ty	pelvis_tz	hip_flexion_r	hip_adduction_r	hip_rotation_r	knee_angle_r	ankle_angle_r	subtalar_angle_r	mtp_angle_r	hip_flexion_l	hip_adduction_l	hip_rotation_l	knee_angle_l	ankle_angle_l	subtalar_angle_l	mtp_angle_l	lumbar_extension	lumbar_bending	lumbar_rotation
      1.31300000	     -0.55402932	      4.26750088	     -2.48344203	      0.18095597	      0.90610852	      0.35931324	     15.50497653	     -7.96389271	     -9.91132537	    -73.00621691	     -4.86629593	      3.82122998	     10.83958527	     11.61375208	      7.93203762	     -6.53268816	    -19.79037958	     11.53565492	     -5.30110932	      2.70255977	     -7.37829611	     -7.35919252	      2.86572854
      1.31716667	     -0.60827029	      4.17177971	     -2.26833360	      0.18602170	      0.90693643	      0.35890220	     16.20335653	     -7.82677900	     -9.99114450	    -72.82242831	     -4.09545858	      3.97276567	     10.78814536	     11.07630329	      7.92304445	     -6.22549920	    -19.32640693	     11.56506784	     -5.30622951	      2.70371015	     -7.36769424	     -7.22838811	      2.59149553
      1.32133333	     -0.64541701	      4.06270780	     -2.04707435	      0.19108426	      0.90778889	      0.35849424	     16.86056454	     -7.67194419	    -10.06674713	    -72.55352570	     -3.35634392	      4.15122988	     10.75175140	     10.51775390	      7.89476249	     -5.91752410	    -18.85755202	     11.60168930	     -5.29460920	      2.70304410	     -7.37304447	     -7.08739250	      2.33516035
      1.32550000	     -0.66842642	      3.94979669	     -1.82031077	      0.19614476	      0.90865364	      0.35807224	     17.48269820	     -7.51406959	    -10.13689824	    -72.20798618	     -2.65123218	      4.34014759	     10.71596211	      9.93571343	      7.86248489	     -5.59646902	    -18.36887707	     11.61598897	     -5.30267391	      2.69950056	     -7.39548478	     -6.93433892	      2.05933603
      1.32966667	     -0.67199561	      3.82344485	     -1.58747405	      0.20119578	      0.90954472	      0.35764006	     18.06019380	     -7.34190214	    -10.20648925	    -71.77823317	     -1.98474925	      4.53417620	     10.68804337	      9.33127673	      7.81226118	     -5.27123495	    -17.87596516	     11.63261902	     -5.30315548	      2.69419879	     -7.44318846	     -6.76329650	      1.79913091
      1.33383333	     -0.65993775	      3.69212652	     -1.35180750	      0.20624392	      0.91044592	      0.35721039	     18.59962012	     -7.16525874	    -10.27264276	    -71.27325023	     -1.34453171	      4.73222562	     10.66090904	      8.70499772	      7.75243710	     -4.94018875	    -17.37039433	     11.63168483	     -5.31522417	      2.68615767	     -7.50886711	     -6.58714644	      1.52615739
      1.33800000	     -0.62938839	      3.55757482	     -1.11737332	      0.21128609	      0.91135908	      0.35678705	     19.09976320	     -6.98124709	    -10.32531196	    -70.69421463	     -0.74882232	      4.92616264	     10.63269587	      8.05171683	      7.68539778	     -4.60485030	    -16.84582480	     11.62544837	     -5.33409769	      2.67541638	     -7.59394949	     -6.40450536	      1.25388539
      1.34216667	     -0.60759353	      3.39518662	     -0.86690972	      0.21628264	      0.91224219	      0.35638258	     19.58532713	     -6.75776054	    -10.38175006	    -70.03288578	     -0.16327669	      5.04891728	     10.62231171	      7.43756011	      7.57134997	     -4.30599285	    -16.37874194	     11.60766179	     -5.28397104	      2.66876750	     -7.67994201	     -6.20008384	      1.07009904
      1.34633333	     -0.51829506	      3.26748927	     -0.64019408	      0.22134546	      0.91319468	      0.35593426	     19.98045522	     -6.59696614	    -10.42830241	    -69.31322263	      0.34722081	      5.26700729	     10.58946479	      6.69252177	      7.50920342	     -3.95293821	    -15.79049192	     11.60185564	     -5.35342547	      2.65292566	     -7.81865496	     -6.01557306	      0.72449505
      1.35050000	     -0.44428098	      3.11095559	     -0.39987312	      0.22636477	      0.91410597	      0.35551335	     20.36797833	     -6.39140660	    -10.47384302	    -68.51308701	      0.84662923	      5.40402290	     10.55918828	      5.99108073	      7.39937297	     -3.62427556	    -15.25288017	     11.58104387	     -5.37256535	      2.63728317	     -7.95085990	     -5.80264324	      0.47701695
      1.35466667	     -0.35233234	      2.95418097	     -0.16534283	      0.23137488	      0.91500952	      0.35509972	     20.71734750	     -6.18606043	    -10.51156174	    -67.64520815	      1.31154036	      5.51391638	     10.52942886	      5.27135577	      7.28136193	     -3.31464068	    -14.71295281	     11.56127760	     -5.38008169	      2.62159768	     -8.10174730	     -5.58770146	      0.23397750
      1.35883333	     -0.24776150	      2.79715033	      0.06570338	      0.23638161	      0.91589639	      0.35469642	     21.03363675	     -5.98099447	    -10.54339921	    -66.71260144	      1.74077228	      5.59503776	     10.49635237	      4.53639240	      7.15565762	     -3.01137511	    -14.16437600	     11.53566459	     -5.39064986	      2.60482994	     -8.26542253	     -5.37322676	     -0.00972080
      1.36300000	     -0.13869836	      2.64930533	      0.29627593	      0.24138214	      0.91675175	      0.35429329	     21.32690185	     -5.78670667	    -10.56877592	    -65.72124222	      2.15915802	      5.62507973	     10.43832194	      3.79029012	      7.03710525	     -2.69102315	    -13.59477434	     11.45453962	     -5.45502799	      2.57731812	     -8.42844907	     -5.17534821	     -0.29476788
      1.36716667	     -0.01435496	      2.47883028	      0.51644818	      0.24637339	      0.91758902	      0.35391587	     21.58103556	     -5.56180062	    -10.58574955	    -64.65196499	      2.49725637	      5.63506022	     10.40205364	      3.04542283	      6.87852636	     -2.42973167	    -13.06372773	     11.47119256	     -5.41769659	      2.56275022	     -8.61204715	     -4.93377655	     -0.47393886
      1.37133333	      0.10221654	      2.30272115	      0.74474141	      0.25134623	      0.91837767	      0.35354776	     21.82028464	     -5.32789368	    -10.60303074	    -63.51682069	      2.84370314	      5.58945074	     10.37607265	      2.32842248	      6.70227836	     -2.19848069	    -12.56412009	     11.43743572	     -5.36506553	      2.55229889	     -8.78608946	     -4.69369934	     -0.64793922
      1.37550000	      0.25869852	      2.16439066	      0.93997833	      0.25634772	      0.91915884	      0.35319463	     22.01064599	     -5.13987331	    -10.59555976	    -62.34624317	      3.09528105	      5.49282462	     10.32487198	      1.52360236	      6.57169553	     -1.92782154	    -11.97174538	     11.42401282	     -5.38170583	      2.53584313	     -9.00006593	     -4.49187038	     -0.90644618
      1.37966667	      0.39600008	      2.00430980	      1.14995728	      0.26132288	      0.91987672	      0.35284983	     22.19325036	     -4.92067547	    -10.58882641	    -61.09908907	      3.33752118	      5.35317271	     10.28321267	      0.77182735	      6.40314377	     -1.69756350	    -11.43871614	     11.40580535	     -5.35271980	      2.52463724	     -9.18895535	     -4.26358430	     -1.09329862
      1.38383333	      0.53774342	      1.85636960	      1.34780094	      0.26630251	      0.92054221	      0.35251900	     22.35553970	     -4.71331805	    -10.56966209	    -59.80222427	      3.54188178	      5.15268450	     10.23196907	      0.01294833	      6.24306756	     -1.47548254	    -10.89918271	     11.37666435	     -5.33317937	      2.51323898	     -9.38186775	     -4.05071598	     -1.29485255
      1.38800000	      0.66580701	      1.69762567	      1.54752444	      0.27126651	      0.92114226	      0.35221108	     22.50968133	     -4.48966402	    -10.54821850	    -58.43896413	      3.72942080	      4.91429904	     10.19317402	     -0.70865562	      6.05959226	     -1.29783845	    -10.40005050	     11.34549613	     -5.27614209	      2.50739143	     -9.55519468	     -3.82288951	     -1.45014710
